{"title":"FORTRESS_2[1999]-AC3-5.1-Dvdrip-Maka6358.avi","uid":4813011,"size":1468444672,"categoryP":"video","categoryS":"movies","magnet":"?xt=urn:btih:30a50d7012862121945af80cc4eb0c618698a7e1&amp;dn=FORTRESS_2%5B1999%5D-AC3-5.1-Dvdrip-Maka6358.avi&amp;tr=udp%3A%2F%2Ftracker.openbittorrent.com%3A80&amp;tr=udp%3A%2F%2Fopen.demonii.com%3A1337&amp;tr=udp%3A%2F%2Ftracker.coppersurfer.tk%3A6969&amp;tr=udp%3A%2F%2Fexodus.desync.com%3A6969","seeders":2,"leechers":1,"uploader":"Maka6358","files":1,"time":1238445825,"description":"7 years on from the original Fortress movie, Brennick and his family are still on the run from the Men-tel corporation. Finally, they give in, and surrender, only to find themselves imprisoned in a new, more sophisticated fortress prison in outer space. But Brennick's not a man to give in easily, and with a 10 year old son waiting for him back on earth, he's going to pack some serious assault on the evil corporation...\n &lt;a href=&quot;\nhttp://www.imdb.com/title/tt0179183/&quot; rel=&quot;nofollow&quot; target=&quot;_NEW&quot;&gt;\nhttp://www.imdb.com/title/tt0179183/&lt;/a&gt;\n\nGeneral\nComplete name                    : FORTRESS_2[1999]-AC3-5.1-Dvdrip-Maka6358.avi\nFormat                           : AVI\nFormat/Info                      : Audio Video Interleave\nFile size                        : 1.37 GiB\nDuration                         : 1h 29mn\nOverall bit rate                 : 2 200 Kbps\nWriting application              : VirtualDubMod 1.5.4.1 (build 2178/release)\nWriting library                  : VirtualDubMod build 2178/release\n\nVideo\nFormat                           : MPEG-4 Visual\nFormat profile                   : Streaming Video@L1\nFormat settings, BVOP            : Yes\nFormat settings, QPel            : No\nFormat settings, GMC             : No warppoints\nFormat settings, Matrix          : Custom\nCodec ID                         : XVID\nCodec ID/Hint                    : XviD\nDuration                         : 1h 29mn\nBit rate                         : 1 745 Kbps\nWidth                            : 720 pixels\nHeight                           : 400 pixels\nDisplay aspect ratio             : 16/9\nFrame rate                       : 25.000 fps\nResolution                       : 24 bits\nColorimetry                      : 4:2:0\nScan type                        : Progressive\nBits/(Pixel*Frame)               : 0.242\nStream size                      : 1.08 GiB (79%)\nWriting library                  : XviD 1.2.0.dev47 (UTC 2006-11-01)\n\nAudio\nFormat                           : AC-3\nFormat/Info                      : Audio Coding 3\nCodec ID                         : 2000\nDuration                         : 1h 29mn\nBit rate mode                    : Constant\nBit rate                         : 448 Kbps\nChannel(s)                       : 6 channels\nChannel positions                : Front: L C R, Surround: L R, LFE\nSampling rate                    : 48.0 KHz\nStream size                      : 285 MiB (20%)\nAlignment                        : Split accross interleaves\nInterleave, duration             : 96 ms (2.40 video frames)\nInterleave, preload duration     : 96 ms\nLanguage                         : English\n\nInfo Hash                        : 30A50D7012862121945AF80CC4EB0C618698A7E1","torrent":{"xt":"urn:btih:30a50d7012862121945af80cc4eb0c618698a7e1","amp;dn":"FORTRESS_2%5B1999%5D-AC3-5.1-Dvdrip-Maka6358.avi","amp;tr":["udp%3A%2F%2Ftracker.openbittorrent.com%3A80","udp%3A%2F%2Fopen.demonii.com%3A1337","udp%3A%2F%2Ftracker.coppersurfer.tk%3A6969","udp%3A%2F%2Fexodus.desync.com%3A6969"],"infoHash":"30a50d7012862121945af80cc4eb0c618698a7e1","infoHashBuffer":{"type":"Buffer","data":[48,165,13,112,18,134,33,33,148,90,248,12,196,235,12,97,134,152,167,225]},"announce":[],"urlList":[]}}